<?xml version="1.0" standalone="no"?>
<!DOCTYPE svg PUBLIC "-//W3C//DTD SVG 20010904//EN"
 "http://www.w3.org/TR/2001/REC-SVG-20010904/DTD/svg10.dtd">
<svg version="1.0" xmlns="http://www.w3.org/2000/svg"
 width="249.000000pt" height="249.000000pt" viewBox="0 0 249.000000 249.000000"
 preserveAspectRatio="xMidYMid meet">
<metadata>
Created by potrace 1.14, written by Peter Selinger 2001-2017
</metadata>
<g transform="translate(0.000000,249.000000) scale(0.100000,-0.100000)"
fill="#000000" stroke="none">
<path d="M738 1775 c-2 -2 -28 -5 -58 -9 -189 -19 -361 -141 -440 -311 -105
-226 -60 -478 116 -650 88 -85 186 -133 316 -152 214 -31 432 73 552 264 14
24 26 44 26 46 0 2 -38 4 -85 4 l-85 0 -45 46 c-82 84 -121 95 -163 45 -28
-33 -69 -37 -102 -10 -28 22 -32 85 -7 109 25 25 81 22 112 -7 17 -16 38 -24
67 -25 34 -1 47 -8 78 -41 73 -77 74 -78 161 -79 84 -2 92 2 103 48 l6 27
-104 0 -105 0 -62 60 -62 60 -148 0 c-89 0 -149 -4 -149 -10 0 -22 -43 -48
-73 -44 -62 7 -88 78 -46 123 18 19 29 22 58 17 20 -3 44 -15 54 -27 16 -20
25 -21 169 -20 l152 1 61 -60 61 -61 98 -1 c53 0 98 1 100 3 2 2 6 19 9 37 l5
32 -113 0 -112 0 -59 60 -59 60 -263 0 c-227 0 -263 -2 -269 -15 -8 -23 -54
-43 -82 -36 -13 4 -33 18 -44 33 -17 22 -18 30 -8 61 7 20 21 39 31 42 38 12
60 14 60 4 0 -6 4 -8 10 -4 5 3 17 -6 26 -20 l16 -25 267 0 267 0 62 -60 63
-60 103 0 103 0 -9 58 c-12 76 -24 117 -56 180 -80 159 -244 275 -422 299 -69
9 -80 10 -82 8z"/>
</g>
</svg>
